<mxfile host="app.diagrams.net" modified="2022-04-06T11:54:37.545Z" agent="5.0 (Windows NT 10.0; Win64; x64) AppleWebKit/537.36 (KHTML, like Gecko) Chrome/100.0.4896.60 Safari/537.36 Edg/100.0.1185.29" etag="YDLfj1huFbyTyA3K3PHG" version="17.4.0" type="github">
  <diagram id="dL0te081s47HW9RIa-uK" name="Page-1">
    <mxGraphModel dx="990" dy="547" grid="1" gridSize="10" guides="1" tooltips="1" connect="1" arrows="1" fold="1" page="1" pageScale="1" pageWidth="827" pageHeight="1169" math="0" shadow="0">
      <root>
        <mxCell id="0" />
        <mxCell id="1" parent="0" />
        <mxCell id="V70fvdhM3vt8E0Q6JS0D-3" value="" style="edgeStyle=orthogonalEdgeStyle;rounded=0;orthogonalLoop=1;jettySize=auto;html=1;" edge="1" parent="1" source="V70fvdhM3vt8E0Q6JS0D-1" target="V70fvdhM3vt8E0Q6JS0D-2">
          <mxGeometry relative="1" as="geometry" />
        </mxCell>
        <mxCell id="V70fvdhM3vt8E0Q6JS0D-1" value="用户输入搜索" style="rounded=0;whiteSpace=wrap;html=1;" vertex="1" parent="1">
          <mxGeometry x="120" y="200" width="120" height="60" as="geometry" />
        </mxCell>
        <mxCell id="V70fvdhM3vt8E0Q6JS0D-5" value="" style="edgeStyle=orthogonalEdgeStyle;rounded=0;orthogonalLoop=1;jettySize=auto;html=1;" edge="1" parent="1" source="V70fvdhM3vt8E0Q6JS0D-2" target="V70fvdhM3vt8E0Q6JS0D-4">
          <mxGeometry relative="1" as="geometry" />
        </mxCell>
        <mxCell id="V70fvdhM3vt8E0Q6JS0D-2" value="校验数据合法性" style="whiteSpace=wrap;html=1;rounded=0;" vertex="1" parent="1">
          <mxGeometry x="270" y="200" width="120" height="60" as="geometry" />
        </mxCell>
        <mxCell id="V70fvdhM3vt8E0Q6JS0D-7" value="" style="edgeStyle=orthogonalEdgeStyle;rounded=0;orthogonalLoop=1;jettySize=auto;html=1;" edge="1" parent="1" source="V70fvdhM3vt8E0Q6JS0D-4" target="V70fvdhM3vt8E0Q6JS0D-6">
          <mxGeometry relative="1" as="geometry" />
        </mxCell>
        <mxCell id="V70fvdhM3vt8E0Q6JS0D-4" value="对输入数据进行分词" style="whiteSpace=wrap;html=1;rounded=0;" vertex="1" parent="1">
          <mxGeometry x="414" y="200" width="120" height="60" as="geometry" />
        </mxCell>
        <mxCell id="V70fvdhM3vt8E0Q6JS0D-13" value="" style="edgeStyle=none;rounded=0;orthogonalLoop=1;jettySize=auto;html=1;elbow=vertical;" edge="1" parent="1" source="V70fvdhM3vt8E0Q6JS0D-6" target="V70fvdhM3vt8E0Q6JS0D-12">
          <mxGeometry relative="1" as="geometry" />
        </mxCell>
        <mxCell id="V70fvdhM3vt8E0Q6JS0D-6" value="进行数据检索" style="whiteSpace=wrap;html=1;rounded=0;" vertex="1" parent="1">
          <mxGeometry x="414" y="300" width="120" height="60" as="geometry" />
        </mxCell>
        <mxCell id="V70fvdhM3vt8E0Q6JS0D-10" style="rounded=0;orthogonalLoop=1;jettySize=auto;html=1;exitX=0.5;exitY=1;exitDx=0;exitDy=0;exitPerimeter=0;entryX=0.667;entryY=1.01;entryDx=0;entryDy=0;elbow=vertical;entryPerimeter=0;" edge="1" parent="1" source="V70fvdhM3vt8E0Q6JS0D-8" target="V70fvdhM3vt8E0Q6JS0D-6">
          <mxGeometry relative="1" as="geometry" />
        </mxCell>
        <mxCell id="V70fvdhM3vt8E0Q6JS0D-8" value="帖子信息表" style="shape=cylinder3;whiteSpace=wrap;html=1;boundedLbl=1;backgroundOutline=1;size=15;" vertex="1" parent="1">
          <mxGeometry x="510" y="400" width="60" height="80" as="geometry" />
        </mxCell>
        <mxCell id="V70fvdhM3vt8E0Q6JS0D-11" style="rounded=0;orthogonalLoop=1;jettySize=auto;html=1;exitX=0.5;exitY=1;exitDx=0;exitDy=0;exitPerimeter=0;elbow=vertical;" edge="1" parent="1" source="V70fvdhM3vt8E0Q6JS0D-9" target="V70fvdhM3vt8E0Q6JS0D-6">
          <mxGeometry relative="1" as="geometry" />
        </mxCell>
        <mxCell id="V70fvdhM3vt8E0Q6JS0D-9" value="标签信息表" style="shape=cylinder3;whiteSpace=wrap;html=1;boundedLbl=1;backgroundOutline=1;size=15;" vertex="1" parent="1">
          <mxGeometry x="384" y="400" width="60" height="80" as="geometry" />
        </mxCell>
        <mxCell id="V70fvdhM3vt8E0Q6JS0D-19" value="" style="edgeStyle=none;rounded=0;orthogonalLoop=1;jettySize=auto;html=1;elbow=vertical;" edge="1" parent="1" source="V70fvdhM3vt8E0Q6JS0D-12" target="V70fvdhM3vt8E0Q6JS0D-18">
          <mxGeometry relative="1" as="geometry" />
        </mxCell>
        <mxCell id="V70fvdhM3vt8E0Q6JS0D-12" value="整合数据" style="whiteSpace=wrap;html=1;rounded=0;" vertex="1" parent="1">
          <mxGeometry x="270" y="300" width="120" height="60" as="geometry" />
        </mxCell>
        <mxCell id="V70fvdhM3vt8E0Q6JS0D-18" value="搜索结果" style="shape=document;whiteSpace=wrap;html=1;boundedLbl=1;rounded=0;" vertex="1" parent="1">
          <mxGeometry x="120" y="290" width="120" height="80" as="geometry" />
        </mxCell>
      </root>
    </mxGraphModel>
  </diagram>
</mxfile>
